<svg version="1.1" id="Layer_2" xmlns="http://www.w3.org/2000/svg" xmlns:xlink="http://www.w3.org/1999/xlink" x="0px" y="0px"
	 width="64px" height="64px" viewBox="0 0 64 64" enable-background="new 0 0 64 64" xml:space="preserve">
<path fill="#FFFFFF" d="M46.109,27.441c0.637-4.258-2.605-6.547-7.038-8.074l1.438-5.768l-3.512-0.875l-1.399,5.616
	c-0.923-0.229-1.871-0.447-2.813-0.662l1.41-5.652l-3.509-0.875l-1.439,5.766c-0.764-0.174-1.514-0.346-2.242-0.527l0.004-0.018
	l-4.842-1.209l-0.934,3.75c0,0,2.605,0.597,2.55,0.634c1.422,0.355,1.679,1.296,1.636,2.042l-1.638,6.571
	c0.098,0.025,0.225,0.061,0.365,0.117c-0.117-0.029-0.242-0.062-0.371-0.092l-2.296,9.205c-0.174,0.433-0.615,1.08-1.609,0.834
	c0.035,0.052-2.552-0.637-2.552-0.637l-1.743,4.02l4.569,1.139c0.85,0.213,1.683,0.436,2.503,0.646l-1.453,5.834l3.507,0.875
	l1.439-5.772c0.958,0.26,1.888,0.5,2.798,0.726l-1.434,5.745l3.511,0.875l1.453-5.823c5.987,1.134,10.489,0.677,12.384-4.738
	c1.526-4.36-0.076-6.875-3.226-8.516C43.92,32.067,45.648,30.558,46.109,27.441z M38.088,38.69
	c-1.086,4.359-8.427,2.003-10.807,1.411l1.928-7.729C31.589,32.967,39.221,34.143,38.088,38.69z M39.174,27.378
	c-0.99,3.966-7.101,1.951-9.083,1.457l1.748-7.01C33.821,22.319,40.204,23.241,39.174,27.378z"/>
</svg>
